<svg width="42" aria-label="News" aria-hidden="true" height="48" viewBox="0 0 42 48" fill="none" xmlns="http://www.w3.org/2000/svg">
<path d="M15.5635 21.001H28.5328" stroke="#000000" stroke-width="3" stroke-linecap="round" stroke-linejoin="round"/>
<path d="M15.5635 27.0007H28.5328" stroke="#000000" stroke-width="3" stroke-linecap="round" stroke-linejoin="round"/>
<path d="M5.1875 37.5005C5.87543 37.5005 6.53519 37.1844 7.02163 36.6218C7.50808 36.0592 7.78136 35.2962 7.78136 34.5005V12.0005C7.78136 11.6027 7.918 11.2212 8.16122 10.9399C8.40444 10.6585 8.73432 10.5005 9.07829 10.5005H35.0169C35.3608 10.5005 35.6907 10.6585 35.9339 10.9399C36.1772 11.2212 36.3138 11.6027 36.3138 12.0005V34.5005C36.3138 35.2962 36.0405 36.0592 35.5541 36.6218C35.0676 37.1844 34.4079 37.5005 33.7199 37.5005H5.1875Z" stroke="#000000" stroke-width="3" stroke-linecap="round" stroke-linejoin="round"/>
<path d="M5.18761 37.5002C4.49967 37.5002 3.83992 37.1841 3.35347 36.6215C2.86703 36.0589 2.59375 35.2959 2.59375 34.5002V16.5002" stroke="#000000" stroke-width="3" stroke-linecap="round" stroke-linejoin="round"/>
</svg>
