<svg role="img" aria-label="Basic Page" aria-hidden="true" width="44" height="42" viewBox="0 0 44 42" fill="none" xmlns="http://www.w3.org/2000/svg">
<g clip-path="url(#clip0_5605_56225)">
<path d="M22.502 29.5444C27.4725 29.5444 31.502 25.515 31.502 20.5444C31.502 15.5739 27.4725 11.5444 22.502 11.5444C17.5314 11.5444 13.502 15.5739 13.502 20.5444C13.502 25.515 17.5314 29.5444 22.502 29.5444Z" stroke="#000000" stroke-width="3" stroke-linecap="round" stroke-linejoin="round"/>
<path d="M35.024 12.2569C35.4754 12.9032 35.8706 13.5869 36.2053 14.3007L41.0615 17.0007C41.6679 19.7166 41.6743 22.5321 41.0803 25.2507L36.2053 27.9507C35.8706 28.6644 35.4754 29.3482 35.024 29.9944L35.1178 35.5632C33.0597 37.4386 30.6238 38.8516 27.974 39.7069L23.1928 36.8382C22.4063 36.8944 21.6168 36.8944 20.8303 36.8382L16.0678 39.6882C13.4096 38.8484 10.9657 37.4409 8.90528 35.5632L8.99903 30.0132C8.55141 29.358 8.15643 28.6683 7.81778 27.9507L2.96153 25.2507C2.35515 22.5348 2.34875 19.7193 2.94278 17.0007L7.81778 14.3007C8.15243 13.5869 8.54763 12.9032 8.99903 12.2569L8.90528 6.68818C10.9634 4.81274 13.3992 3.39981 16.049 2.54443L20.8303 5.41318C21.6168 5.35693 22.4063 5.35693 23.1928 5.41318L27.9553 2.56318C30.6135 3.40299 33.0574 4.81047 35.1178 6.68818L35.024 12.2569Z" stroke="#000000" stroke-width="3" stroke-linecap="round" stroke-linejoin="round"/>
</g>
<defs>
<clipPath>
<rect width="43" height="41" fill="white" transform="translate(0.501953 0.5)"/>
</clipPath>
</defs>
</svg>
